solid OpenSCAD_Model
  facet normal 0.866025 0.5 0
    outer loop
      vertex 5.5 0 35
      vertex 2.75 4.76314 0
      vertex 2.75 4.76314 35
    endloop
  endfacet
  facet normal 0.866025 0.5 0
    outer loop
      vertex 2.75 4.76314 0
      vertex 5.5 0 35
      vertex 5.5 0 0
    endloop
  endfacet
  facet normal -0.866025 0.5 0
    outer loop
      vertex -5.5 0 0
      vertex -2.75 4.76314 35
      vertex -2.75 4.76314 0
    endloop
  endfacet
  facet normal -0.866025 0.5 0
    outer loop
      vertex -2.75 4.76314 35
      vertex -5.5 0 0
      vertex -5.5 0 35
    endloop
  endfacet
  facet normal 0 1 -0
    outer loop
      vertex 2.75 4.76314 0
      vertex -2.75 4.76314 35
      vertex 2.75 4.76314 35
    endloop
  endfacet
  facet normal 0 1 0
    outer loop
      vertex -2.75 4.76314 35
      vertex 2.75 4.76314 0
      vertex -2.75 4.76314 0
    endloop
  endfacet
  facet normal -0.866025 -0.5 0
    outer loop
      vertex -2.75 -4.76314 0
      vertex -5.5 0 35
      vertex -5.5 0 0
    endloop
  endfacet
  facet normal -0.866025 -0.5 0
    outer loop
      vertex -5.5 0 35
      vertex -2.75 -4.76314 0
      vertex -2.75 -4.76314 35
    endloop
  endfacet
  facet normal 0 0 1
    outer loop
      vertex 2.75 4.76314 35
      vertex 2.75 -4.76314 35
      vertex 5.5 0 35
    endloop
  endfacet
  facet normal -0 0 1
    outer loop
      vertex -2.75 4.76314 35
      vertex 2.75 -4.76314 35
      vertex 2.75 4.76314 35
    endloop
  endfacet
  facet normal 0 0 1
    outer loop
      vertex -2.75 4.76314 35
      vertex -2.75 -4.76314 35
      vertex 2.75 -4.76314 35
    endloop
  endfacet
  facet normal 0 -0 1
    outer loop
      vertex -2.75 -4.76314 35
      vertex -2.75 4.76314 35
      vertex -5.5 0 35
    endloop
  endfacet
  facet normal 0.866025 -0.5 0
    outer loop
      vertex 2.75 -4.76314 35
      vertex 5.5 0 0
      vertex 5.5 0 35
    endloop
  endfacet
  facet normal 0.866025 -0.5 0
    outer loop
      vertex 5.5 0 0
      vertex 2.75 -4.76314 35
      vertex 2.75 -4.76314 0
    endloop
  endfacet
  facet normal 0 0 -1
    outer loop
      vertex 2.75 -4.76314 0
      vertex 3.85 0 0
      vertex 5.5 0 0
    endloop
  endfacet
  facet normal 0 0 -1
    outer loop
      vertex 2.75 -4.76314 0
      vertex 1.925 -3.3342 0
      vertex 3.85 0 0
    endloop
  endfacet
  facet normal 0 0 -1
    outer loop
      vertex 2.75 -4.76314 0
      vertex -1.925 -3.3342 0
      vertex 1.925 -3.3342 0
    endloop
  endfacet
  facet normal 0 0 -1
    outer loop
      vertex -2.75 -4.76314 0
      vertex -1.925 -3.3342 0
      vertex 2.75 -4.76314 0
    endloop
  endfacet
  facet normal 0 0 -1
    outer loop
      vertex -2.75 -4.76314 0
      vertex -3.85 0 0
      vertex -1.925 -3.3342 0
    endloop
  endfacet
  facet normal -0 -0 -1
    outer loop
      vertex -3.85 0 0
      vertex -2.75 -4.76314 0
      vertex -5.5 0 0
    endloop
  endfacet
  facet normal 0 0 -1
    outer loop
      vertex 3.85 0 0
      vertex 2.75 4.76314 0
      vertex 5.5 0 0
    endloop
  endfacet
  facet normal 0 0 -1
    outer loop
      vertex 1.925 3.3342 0
      vertex 2.75 4.76314 0
      vertex 3.85 0 0
    endloop
  endfacet
  facet normal 0 0 -1
    outer loop
      vertex -1.925 3.3342 0
      vertex 2.75 4.76314 0
      vertex 1.925 3.3342 0
    endloop
  endfacet
  facet normal 0 0 -1
    outer loop
      vertex -1.925 3.3342 0
      vertex -2.75 4.76314 0
      vertex 2.75 4.76314 0
    endloop
  endfacet
  facet normal 0 0 -1
    outer loop
      vertex -3.85 0 0
      vertex -2.75 4.76314 0
      vertex -1.925 3.3342 0
    endloop
  endfacet
  facet normal 0 0 -1
    outer loop
      vertex -2.75 4.76314 0
      vertex -3.85 0 0
      vertex -5.5 0 0
    endloop
  endfacet
  facet normal 0 -1 0
    outer loop
      vertex -2.75 -4.76314 0
      vertex 2.75 -4.76314 35
      vertex -2.75 -4.76314 35
    endloop
  endfacet
  facet normal 0 -1 -0
    outer loop
      vertex 2.75 -4.76314 35
      vertex -2.75 -4.76314 0
      vertex 2.75 -4.76314 0
    endloop
  endfacet
  facet normal -0.866025 -0.5 0
    outer loop
      vertex 3.85 0 0
      vertex 1.925 3.3342 25
      vertex 1.925 3.3342 0
    endloop
  endfacet
  facet normal -0.866025 -0.5 0
    outer loop
      vertex 1.925 3.3342 25
      vertex 3.85 0 0
      vertex 3.85 0 25
    endloop
  endfacet
  facet normal 0.866025 -0.5 0
    outer loop
      vertex -3.85 0 25
      vertex -1.925 3.3342 0
      vertex -1.925 3.3342 25
    endloop
  endfacet
  facet normal 0.866025 -0.5 0
    outer loop
      vertex -1.925 3.3342 0
      vertex -3.85 0 25
      vertex -3.85 0 0
    endloop
  endfacet
  facet normal 0 -1 0
    outer loop
      vertex -1.925 3.3342 0
      vertex 1.925 3.3342 25
      vertex -1.925 3.3342 25
    endloop
  endfacet
  facet normal 0 -1 -0
    outer loop
      vertex 1.925 3.3342 25
      vertex -1.925 3.3342 0
      vertex 1.925 3.3342 0
    endloop
  endfacet
  facet normal 0 0 -1
    outer loop
      vertex 1.925 -3.3342 25
      vertex 1.925 3.3342 25
      vertex 3.85 0 25
    endloop
  endfacet
  facet normal 0 0 -1
    outer loop
      vertex -1.925 -3.3342 25
      vertex 1.925 3.3342 25
      vertex 1.925 -3.3342 25
    endloop
  endfacet
  facet normal 0 0 -1
    outer loop
      vertex -1.925 -3.3342 25
      vertex -1.925 3.3342 25
      vertex 1.925 3.3342 25
    endloop
  endfacet
  facet normal 0 -0 -1
    outer loop
      vertex -1.925 3.3342 25
      vertex -1.925 -3.3342 25
      vertex -3.85 0 25
    endloop
  endfacet
  facet normal 0.866025 0.5 0
    outer loop
      vertex -1.925 -3.3342 25
      vertex -3.85 0 0
      vertex -3.85 0 25
    endloop
  endfacet
  facet normal 0.866025 0.5 0
    outer loop
      vertex -3.85 0 0
      vertex -1.925 -3.3342 25
      vertex -1.925 -3.3342 0
    endloop
  endfacet
  facet normal -0.866025 0.5 0
    outer loop
      vertex 1.925 -3.3342 0
      vertex 3.85 0 25
      vertex 3.85 0 0
    endloop
  endfacet
  facet normal -0.866025 0.5 0
    outer loop
      vertex 3.85 0 25
      vertex 1.925 -3.3342 0
      vertex 1.925 -3.3342 25
    endloop
  endfacet
  facet normal 0 1 -0
    outer loop
      vertex 1.925 -3.3342 0
      vertex -1.925 -3.3342 25
      vertex 1.925 -3.3342 25
    endloop
  endfacet
  facet normal 0 1 0
    outer loop
      vertex -1.925 -3.3342 25
      vertex 1.925 -3.3342 0
      vertex -1.925 -3.3342 0
    endloop
  endfacet
endsolid OpenSCAD_Model
